<svg width="40" height="25" viewBox="0 0 40 25" fill="none" xmlns="http://www.w3.org/2000/svg">
<path d="M9.36725 0.09375H2.21881C1.24803 0.09375 0.460999 0.880781 0.460999 1.85156V8.88281C0.460999 9.85359 1.24803 10.6406 2.21881 10.6406H9.36725C10.338 10.6406 11.1251 9.85359 11.1251 8.88281V1.85156C11.1251 0.880781 10.338 0.09375 9.36725 0.09375ZM7.60944 7.125H3.97662V3.60938H7.60944V7.125ZM9.36725 14.3906H2.21881C1.24803 14.3906 0.460999 15.1777 0.460999 16.1484V23.1797C0.460999 24.1505 1.24803 24.9375 2.21881 24.9375H9.36725C10.338 24.9375 11.1251 24.1505 11.1251 23.1797V16.1484C11.1251 15.1777 10.338 14.3906 9.36725 14.3906ZM7.60944 21.4219H3.97662V17.9062H7.60944V21.4219ZM23.4297 0.09375H16.3985C15.4277 0.09375 14.6407 0.880781 14.6407 1.85156V8.88281C14.6407 9.85359 15.4277 10.6406 16.3985 10.6406H23.4297C24.4005 10.6406 25.1876 9.85359 25.1876 8.88281V1.85156C25.1876 0.880781 24.4005 0.09375 23.4297 0.09375ZM21.6719 7.125H18.1563V3.60938H21.6719V7.125ZM23.4297 14.3906H16.3985C15.4277 14.3906 14.6407 15.1777 14.6407 16.1484V23.1797C14.6407 24.1505 15.4277 24.9375 16.3985 24.9375H23.4297C24.4005 24.9375 25.1876 24.1505 25.1876 23.1797V16.1484C25.1876 15.1777 24.4005 14.3906 23.4297 14.3906ZM21.6719 21.4219H18.1563V17.9062H21.6719V21.4219ZM37.6094 0.09375H30.461C29.4902 0.09375 28.7032 0.880781 28.7032 1.85156V8.88281C28.7032 9.85359 29.4902 10.6406 30.461 10.6406H37.6094C38.5802 10.6406 39.3672 9.85359 39.3672 8.88281V1.85156C39.3672 0.880781 38.5802 0.09375 37.6094 0.09375ZM35.8516 7.125H32.2188V3.60938H35.8516V7.125Z" fill="black"/>
</svg>
